<svg xmlns="http://www.w3.org/2000/svg" viewBox="0 0 800 500" font-family="Segoe UI,Arial,sans-serif">
<defs><linearGradient id="o" x1="0" x2="1"><stop offset="0" stop-color="#ff5f56"/><stop offset="1" stop-color="#ff8a3d"/></linearGradient></defs>
<rect width="800" height="500" rx="18" fill="#0c0e13"/>
<rect width="800" height="44" rx="18" fill="#12151c"/><rect y="26" width="800" height="18" fill="#12151c"/>
<circle cx="26" cy="22" r="6" fill="#ff5f56"/><circle cx="46" cy="22" r="6" fill="#ffbd2e"/><circle cx="66" cy="22" r="6" fill="#27c93f"/>
<g fill="url(#o)"><rect x="96" y="14" width="3" height="16" rx="1.5"/><rect x="102" y="10" width="3" height="24" rx="1.5"/><rect x="108" y="16" width="3" height="12" rx="1.5"/><rect x="114" y="12" width="3" height="20" rx="1.5"/></g>
<text x="126" y="27" fill="#c9ced8" font-size="14" font-weight="600">Verba Studio</text><text x="600" y="27" fill="#8a91a0" font-size="13">Render theo lô</text>
<text x="24" y="84" fill="#c9ced8" font-size="16" font-weight="600">Hàng đợi render</text>
<rect x="560" y="64" width="216" height="32" rx="8" fill="#12151c"/><text x="578" y="85" fill="#c9ced8" font-size="13">H.265 · 1080p · 8 Mbps</text><rect x="24" y="116" width="752" height="56" rx="10" fill="#12151c"/><rect x="40" y="128" width="52" height="32" rx="6" fill="#2b3040"/><text x="108" y="149" fill="#c9ced8" font-size="14">video-ban-hang-01.mp4</text><text x="380" y="149" fill="#8a91a0" font-size="12">H.264</text><rect x="460" y="141" width="200" height="6" rx="3" fill="#2b3040"/><rect x="460" y="141" width="200" height="6" rx="3" fill="url(#o)"/><text x="752" y="149" fill="#ff8a3d" font-size="13" text-anchor="end">Xong</text><rect x="24" y="182" width="752" height="56" rx="10" fill="#12151c"/><rect x="40" y="194" width="52" height="32" rx="6" fill="#2b3040"/><text x="108" y="215" fill="#c9ced8" font-size="14">video-ban-hang-02.mp4</text><text x="380" y="215" fill="#8a91a0" font-size="12">H.264</text><rect x="460" y="207" width="200" height="6" rx="3" fill="#2b3040"/><rect x="460" y="207" width="200" height="6" rx="3" fill="url(#o)"/><text x="752" y="215" fill="#ff8a3d" font-size="13" text-anchor="end">Xong</text><rect x="24" y="248" width="752" height="56" rx="10" fill="#12151c"/><rect x="40" y="260" width="52" height="32" rx="6" fill="#2b3040"/><text x="108" y="281" fill="#c9ced8" font-size="14">review-san-pham.mp4</text><text x="380" y="281" fill="#8a91a0" font-size="12">H.265</text><rect x="460" y="273" width="200" height="6" rx="3" fill="#2b3040"/><rect x="460" y="273" width="144" height="6" rx="3" fill="url(#o)"/><text x="752" y="281" fill="#ff8a3d" font-size="13" text-anchor="end">72%</text><rect x="24" y="314" width="752" height="56" rx="10" fill="#12151c"/><rect x="40" y="326" width="52" height="32" rx="6" fill="#2b3040"/><text x="108" y="347" fill="#c9ced8" font-size="14">livestream-cat-ngan.mp4</text><text x="380" y="347" fill="#8a91a0" font-size="12">H.265</text><rect x="460" y="339" width="200" height="6" rx="3" fill="#2b3040"/><rect x="460" y="339" width="76" height="6" rx="3" fill="url(#o)"/><text x="752" y="347" fill="#ff8a3d" font-size="13" text-anchor="end">38%</text><rect x="24" y="380" width="752" height="56" rx="10" fill="#12151c"/><rect x="40" y="392" width="52" height="32" rx="6" fill="#2b3040"/><text x="108" y="413" fill="#c9ced8" font-size="14">huong-dan-su-dung.mp4</text><text x="380" y="413" fill="#8a91a0" font-size="12">H.264</text><rect x="460" y="405" width="200" height="6" rx="3" fill="#2b3040"/><rect x="460" y="405" width="0" height="6" rx="3" fill="url(#o)"/><text x="752" y="413" fill="#ff8a3d" font-size="13" text-anchor="end">Chờ</text><rect x="24" y="446" width="200" height="36" rx="10" fill="url(#o)"/><text x="124" y="469" fill="#fff" font-size="14" font-weight="700" text-anchor="middle">Render tất cả</text></svg>